<?xml version="1.0" encoding="UTF-8" standalone="no"?>
<!-- Created with Inkscape (http://www.inkscape.org/) -->
<svg
   xmlns:dc="http://purl.org/dc/elements/1.1/"
   xmlns:cc="http://creativecommons.org/ns#"
   xmlns:rdf="http://www.w3.org/1999/02/22-rdf-syntax-ns#"
   xmlns:svg="http://www.w3.org/2000/svg"
   xmlns="http://www.w3.org/2000/svg"
   xmlns:xlink="http://www.w3.org/1999/xlink"
   xmlns:sodipodi="http://sodipodi.sourceforge.net/DTD/sodipodi-0.dtd"
   xmlns:inkscape="http://www.inkscape.org/namespaces/inkscape"
   width="744.09448819"
   height="1052.3622047"
   id="svg2"
   sodipodi:version="0.32"
   inkscape:version="0.46+pre4"
   sodipodi:docname="blog this icon.svg"
   inkscape:output_extension="org.inkscape.output.svg.inkscape">
  <defs
     id="defs4">
    <linearGradient
       id="linearGradient3155">
      <stop
         style="stop-color:#ffb380;stop-opacity:1;"
         offset="0"
         id="stop3157" />
      <stop
         style="stop-color:#ffbd90;stop-opacity:1;"
         offset="1"
         id="stop3159" />
    </linearGradient>
    <inkscape:perspective
       sodipodi:type="inkscape:persp3d"
       inkscape:vp_x="0 : 526.18109 : 1"
       inkscape:vp_y="0 : 1000 : 0"
       inkscape:vp_z="744.09448 : 526.18109 : 1"
       inkscape:persp3d-origin="372.04724 : 350.78739 : 1"
       id="perspective10" />
    <radialGradient
       inkscape:collect="always"
       xlink:href="#linearGradient3155"
       id="radialGradient3161"
       cx="390.71429"
       cy="425.93362"
       fx="390.71429"
       fy="425.93362"
       r="141.42857"
       gradientUnits="userSpaceOnUse" />
  </defs>
  <sodipodi:namedview
     id="base"
     pagecolor="#ffffff"
     bordercolor="#666666"
     borderopacity="1.0"
     gridtolerance="10000"
     guidetolerance="10"
     objecttolerance="10"
     inkscape:pageopacity="0.0"
     inkscape:pageshadow="2"
     inkscape:zoom="0.7"
     inkscape:cx="101.93367"
     inkscape:cy="519.38043"
     inkscape:document-units="px"
     inkscape:current-layer="layer1"
     showgrid="false"
     inkscape:window-width="1280"
     inkscape:window-height="975"
     inkscape:window-x="-4"
     inkscape:window-y="-4" />
  <metadata
     id="metadata7">
    <rdf:RDF>
      <cc:Work
         rdf:about="">
        <dc:format>image/svg+xml</dc:format>
        <dc:type
           rdf:resource="http://purl.org/dc/dcmitype/StillImage" />
        <dc:title>Blog this icon</dc:title>
        <dc:subject>
          <rdf:Bag>
            <rdf:li>blog-this icon cloud button</rdf:li>
          </rdf:Bag>
        </dc:subject>
      </cc:Work>
    </rdf:RDF>
  </metadata>
  <g
     inkscape:label="Layer 1"
     inkscape:groupmode="layer"
     id="layer1">
    <path
       sodipodi:type="arc"
       style="opacity:1;fill:url(#radialGradient3161);fill-opacity:1;fill-rule:evenodd;stroke:#ff9955;stroke-width:10;stroke-linecap:round;stroke-linejoin:round;stroke-miterlimit:4;stroke-dasharray:none;stroke-dashoffset:0;stroke-opacity:1"
       id="path2383"
       sodipodi:cx="390.71429"
       sodipodi:cy="425.93362"
       sodipodi:rx="136.42857"
       sodipodi:ry="136.42857"
       d="M 527.14287,425.93362 A 136.42857,136.42857 0 1 1 254.28572,425.93362 A 136.42857,136.42857 0 1 1 527.14287,425.93362 z"
       transform="translate(-20,5.7142853)" />
    <path
       style="fill:#ffffff;fill-opacity:1;fill-rule:evenodd;stroke:#d45500;stroke-width:5;stroke-linecap:round;stroke-linejoin:round;stroke-miterlimit:4;stroke-dasharray:none;stroke-dashoffset:0;stroke-opacity:1"
       d="M 300.35898,356.89166 L 441.99529,356.89166 C 446.01627,356.89166 449.25338,360.12877 449.25338,364.14975 L 449.25338,480.55618 C 449.25338,484.57716 446.01627,487.81427 441.99529,487.81427 L 424.29075,487.81427 L 406.58621,522.59059 L 388.88167,487.81427 L 371.17713,487.81427 L 353.47259,487.81427 L 335.76806,487.81427 L 318.06352,487.81427 L 300.35898,487.81427 C 296.338,487.81427 293.10089,484.57716 293.10089,480.55618 L 293.10089,364.14975 C 293.10089,360.12877 296.338,356.89166 300.35898,356.89166 z"
       id="rect3163"
       sodipodi:nodetypes="cccccccccccccccc" />
    <path
       style="font-size:32px;font-style:normal;font-variant:normal;font-weight:900;font-stretch:normal;fill:#000000;fill-opacity:1;stroke:none;stroke-width:1px;stroke-linecap:butt;stroke-linejoin:miter;stroke-opacity:1;font-family:Arial Black;-inkscape-font-specification:Arial Black Heavy"
       d="M 323.78795,409.45593 L 337.03795,409.45593 C 339.24626,409.45595 340.94157,410.00282 342.12388,411.09655 C 343.30615,412.19032 343.8973,413.54449 343.89732,415.15905 C 343.8973,416.51323 343.47542,417.67469 342.63169,418.64343 C 342.06917,419.28927 341.24626,419.79969 340.16295,420.17468 C 341.80876,420.57052 343.01969,421.25021 343.79576,422.21374 C 344.57178,423.17729 344.9598,424.38823 344.95982,425.84655 C 344.9598,427.03406 344.68376,428.10176 344.13169,429.04968 C 343.57959,429.99759 342.82438,430.74759 341.86607,431.29968 C 341.2723,431.64343 340.37647,431.89343 339.17857,432.04968 C 337.5848,432.25801 336.52751,432.36218 336.00669,432.36218 L 323.78795,432.36218 L 323.78795,409.45593 z M 330.92857,418.4403 L 334.00669,418.4403 C 335.11085,418.44031 335.87908,418.25021 336.31138,417.86999 C 336.74366,417.48979 336.9598,416.94032 336.95982,416.22155 C 336.9598,415.5549 336.74366,415.03407 336.31138,414.65905 C 335.87908,414.28407 335.12647,414.09657 334.05357,414.09655 L 330.92857,414.09655 L 330.92857,418.4403 z M 330.92857,427.4403 L 334.53795,427.4403 C 335.75668,427.44031 336.61605,427.22416 337.11607,426.79186 C 337.61605,426.35958 337.86605,425.77885 337.86607,425.04968 C 337.86605,424.3726 337.61866,423.82833 337.12388,423.41686 C 336.62908,423.00541 335.76189,422.79968 334.52232,422.79968 L 330.92857,422.79968 L 330.92857,427.4403 z M 348.64732,409.45593 L 355.72545,409.45593 L 355.72545,426.72155 L 366.77232,426.72155 L 366.77232,432.36218 L 348.64732,432.36218 L 348.64732,409.45593 z M 369.13169,420.92468 C 369.13169,417.18511 370.17336,414.27365 372.25669,412.1903 C 374.34002,410.10699 377.24106,409.06532 380.95982,409.0653 C 384.7723,409.06532 387.7098,410.08876 389.77232,412.13561 C 391.8348,414.18251 392.86604,417.04969 392.86607,420.73718 C 392.86604,423.41427 392.41552,425.60958 391.51451,427.32311 C 390.61344,429.03666 389.31136,430.36999 387.60826,431.32311 C 385.90511,432.27624 383.78272,432.7528 381.24107,432.7528 C 378.65773,432.7528 376.51971,432.34134 374.82701,431.51843 C 373.13429,430.69551 371.7619,429.39343 370.70982,427.61218 C 369.65773,425.83093 369.13169,423.60177 369.13169,420.92468 L 369.13169,420.92468 z M 376.20982,420.95593 C 376.20981,423.26843 376.6395,424.92989 377.49888,425.9403 C 378.35825,426.95072 379.52752,427.45593 381.00669,427.45593 C 382.52751,427.45593 383.7046,426.96114 384.53795,425.97155 C 385.37126,424.98197 385.78793,423.20593 385.78795,420.64343 C 385.78793,418.48719 385.35303,416.91167 384.48326,415.91686 C 383.61345,414.92209 382.43376,414.42469 380.94419,414.42468 C 379.5171,414.42469 378.37127,414.9299 377.50669,415.9403 C 376.6421,416.95073 376.20981,418.62261 376.20982,420.95593 L 376.20982,420.95593 z M 408.22545,424.0653 L 408.22545,419.29968 L 419.16295,419.29968 L 419.16295,429.0653 C 417.06917,430.49239 415.21761,431.46374 413.60826,431.97936 C 411.99886,432.49499 410.09001,432.7528 407.88169,432.7528 C 405.16293,432.7528 402.94679,432.28926 401.23326,431.36218 C 399.51971,430.43509 398.19159,429.05489 397.24888,427.22155 C 396.30617,425.38822 395.83482,423.28406 395.83482,420.90905 C 395.83482,418.40906 396.35044,416.23459 397.38169,414.38561 C 398.41294,412.53667 399.92336,411.13303 401.91295,410.17468 C 403.46502,409.43511 405.55356,409.06532 408.17857,409.0653 C 410.7098,409.06532 412.60303,409.29449 413.85826,409.7528 C 415.11345,410.21116 416.15511,410.92209 416.98326,411.88561 C 417.81136,412.84917 418.43375,414.07053 418.85045,415.54968 L 412.02232,416.76843 C 411.74105,415.90386 411.26449,415.2424 410.59263,414.78405 C 409.92074,414.32574 409.06397,414.09657 408.02232,414.09655 C 406.47022,414.09657 405.23325,414.63563 404.31138,415.71374 C 403.3895,416.79188 402.92856,418.49761 402.92857,420.83093 C 402.92856,423.3101 403.39471,425.08093 404.32701,426.14343 C 405.25929,427.20593 406.55877,427.73718 408.22545,427.73718 C 409.0171,427.73718 409.7723,427.6226 410.49107,427.39343 C 411.2098,427.16426 412.03272,426.77364 412.95982,426.22155 L 412.95982,424.0653 L 408.22545,424.0653 z"
       id="text3166" />
  </g>
</svg>
